<svg width="31" height="26" viewBox="0 0 31 26" fill="none" xmlns="http://www.w3.org/2000/svg">
<path d="M13.6268 19.0742H16.7268V15.9492H19.8268V12.8242H16.7268V9.69922H13.6268V12.8242H10.5268V15.9492H13.6268V19.0742ZM3.1 25.3242C2.2475 25.3242 1.51771 25.0182 0.910625 24.4063C0.303542 23.7943 0 23.0586 0 22.1992V3.44922C0 2.58984 0.303542 1.85417 0.910625 1.24219C1.51771 0.630208 2.2475 0.324219 3.1 0.324219H12.4L15.5 3.44922H27.9C28.7525 3.44922 29.4823 3.75521 30.0894 4.36719C30.6965 4.97917 31 5.71484 31 6.57422V22.1992C31 23.0586 30.6965 23.7943 30.0894 24.4063C29.4823 25.0182 28.7525 25.3242 27.9 25.3242H3.1ZM3.1 22.1992H27.9V6.57422H14.2213L11.1213 3.44922H3.1V22.1992Z" fill="white"/>
</svg>
