<svg width="31" height="26" viewBox="0 0 31 26" fill="none" xmlns="http://www.w3.org/2000/svg">
<path d="M13.95 21.285H17.05V14.7225L19.53 17.2225L21.7 15.035L15.5 8.78503L9.3 15.035L11.47 17.2225L13.95 14.7225V21.285ZM3.1 25.9725C2.2475 25.9725 1.51771 25.6665 0.910625 25.0546C0.303542 24.4426 0 23.7069 0 22.8475V4.09753C0 3.23816 0.303542 2.50248 0.910625 1.8905C1.51771 1.27852 2.2475 0.972534 3.1 0.972534H12.4L15.5 4.09753H27.9C28.7525 4.09753 29.4823 4.40352 30.0894 5.0155C30.6965 5.62748 31 6.36316 31 7.22253V22.8475C31 23.7069 30.6965 24.4426 30.0894 25.0546C29.4823 25.6665 28.7525 25.9725 27.9 25.9725H3.1ZM3.1 22.8475H27.9V7.22253H14.2212L11.1212 4.09753H3.1V22.8475Z" fill="white"/>
</svg>
