<svg width="22" height="16" viewBox="0 0 22 16" fill="none" xmlns="http://www.w3.org/2000/svg">
<path d="M11.22 10L9.4325 11.625L10.9725 13.025L15.4 9L10.9725 4.975L9.4325 6.375L11.22 8H6.6V10H11.22ZM2.2 16C1.595 16 1.07708 15.8042 0.64625 15.4125C0.215417 15.0208 0 14.55 0 14V2C0 1.45 0.215417 0.979167 0.64625 0.5875C1.07708 0.195833 1.595 0 2.2 0H8.8L11 2H19.8C20.405 2 20.9229 2.19583 21.3538 2.5875C21.7846 2.97917 22 3.45 22 4V14C22 14.55 21.7846 15.0208 21.3538 15.4125C20.9229 15.8042 20.405 16 19.8 16H2.2ZM2.2 14H19.8V4H10.0925L7.8925 2H2.2V14Z" fill="white"/>
</svg>
