<svg width="6" height="22" viewBox="0 0 6 22" fill="none" xmlns="http://www.w3.org/2000/svg">
<path d="M3.3998 22C2.6848 22 2.07272 21.7307 1.56355 21.1922C1.05439 20.6536 0.799805 20.0063 0.799805 19.25C0.799805 18.4937 1.05439 17.8464 1.56355 17.3078C2.07272 16.7693 2.6848 16.5 3.3998 16.5C4.1148 16.5 4.72689 16.7693 5.23605 17.3078C5.74522 17.8464 5.9998 18.4937 5.9998 19.25C5.9998 20.0063 5.74522 20.6536 5.23605 21.1922C4.72689 21.7307 4.1148 22 3.3998 22ZM3.3998 13.75C2.6848 13.75 2.07272 13.4807 1.56355 12.9422C1.05439 12.4036 0.799805 11.7563 0.799805 11C0.799805 10.2437 1.05439 9.59635 1.56355 9.05781C2.07272 8.51927 2.6848 8.25 3.3998 8.25C4.1148 8.25 4.72689 8.51927 5.23605 9.05781C5.74522 9.59635 5.9998 10.2437 5.9998 11C5.9998 11.7563 5.74522 12.4036 5.23605 12.9422C4.72689 13.4807 4.1148 13.75 3.3998 13.75ZM3.3998 5.5C2.6848 5.5 2.07272 5.23073 1.56355 4.69219C1.05439 4.15365 0.799805 3.50625 0.799805 2.75C0.799805 1.99375 1.05439 1.34635 1.56355 0.807813C2.07272 0.269271 2.6848 0 3.3998 0C4.1148 0 4.72689 0.269271 5.23605 0.807813C5.74522 1.34635 5.9998 1.99375 5.9998 2.75C5.9998 3.50625 5.74522 4.15365 5.23605 4.69219C4.72689 5.23073 4.1148 5.5 3.3998 5.5Z" fill="white"/>
</svg>
