<svg width="20" height="20" viewBox="0 0 20 20" fill="none" xmlns="http://www.w3.org/2000/svg">
<path d="M0 4.28571V15.7143H12.5V14.2857H1.25V5.71429H12.5V4.28571H0Z" fill="white"/>
<path d="M16.25 4.28571V5.71429H18.75V14.2857H16.25V15.7143H20V4.28571H16.25Z" fill="white"/>
<path d="M15 1.42857H13.75V18.5714H15V1.42857Z" fill="white"/>
<path d="M17.5 20V18.5714L15 18.5714V20H17.5Z" fill="white"/>
<path d="M13.75 20V18.5714L11.25 18.5714V20H13.75Z" fill="white"/>
<path d="M17.5 1.42857V0H15V1.42857H17.5Z" fill="white"/>
<path d="M13.75 1.42857V0H11.25V1.42857H13.75Z" fill="white"/>
<path d="M11.25 12.8571V7.14286H2.5V12.8571H11.25Z" fill="white"/>
</svg>
