<svg width="164" height="218" viewBox="0 0 164 218" fill="none" xmlns="http://www.w3.org/2000/svg">
<path d="M164 62.5418H119.194C108.951 62.5418 100.304 64.0743 100.65 55.2365V0L164 62.5418Z" fill="white"/>
<path d="M18.964 0C0 -4.20338e-10 0 8.38089 0 18.7214V199.279C5.45356e-10 218 8.48953 218 18.964 218H145.036C155.51 218 164 218 164 199.279V62.5418H119.194C108.951 62.5418 100.304 64.0743 100.65 55.2365V0H18.964Z" fill="white"/>
<path d="M19 37L88.012 37M19 56.014H88.012M19 75.8083H142M19 96.6668H142M19 117H142" stroke="#979796" stroke-width="2" stroke-linecap="round"/>
<path d="M19 136H142" stroke="#979796" stroke-width="2" stroke-linecap="round"/>
<path d="M19 155H142" stroke="#979796" stroke-width="2" stroke-linecap="round"/>
<path d="M19 174H142" stroke="#979796" stroke-width="2" stroke-linecap="round"/>
<path d="M19 193H142" stroke="#979796" stroke-width="2" stroke-linecap="round"/>
<path d="M101 57V0L164 62H106.5H104.5H103.5L102 61L101 59.5V57Z" fill="#C6C4C4"/>
</svg>
