<svg width="24" height="30" viewBox="0 0 24 30" fill="none" xmlns="http://www.w3.org/2000/svg">
<path d="M10.5 25.2983H13.5V19.2446L15.9 21.5646L18 19.4983L12 13.6983L6 19.4983L8.1375 21.5283L10.5 19.2446V25.2983ZM3 29.6483C2.175 29.6483 1.46875 29.3644 0.88125 28.7964C0.29375 28.2285 0 27.5458 0 26.7483V3.54832C0 2.75082 0.29375 2.06811 0.88125 1.50019C1.46875 0.932274 2.175 0.648315 3 0.648315H15L24 9.34832V26.7483C24 27.5458 23.7063 28.2285 23.1188 28.7964C22.5313 29.3644 21.825 29.6483 21 29.6483H3ZM13.5 10.7983V3.54832H3V26.7483H21V10.7983H13.5Z" fill="white"/>
</svg>
